<svg width="15" height="12" viewBox="0 0 15 12" fill="none" xmlns="http://www.w3.org/2000/svg">
<path d="M2.30769 9.23077H0.461538C0.339131 9.23077 0.221737 9.2794 0.135181 9.36595C0.0486262 9.45251 0 9.5699 0 9.69231L0 11.5385C0 11.6609 0.0486262 11.7783 0.135181 11.8648C0.221737 11.9514 0.339131 12 0.461538 12H2.30769C2.4301 12 2.54749 11.9514 2.63405 11.8648C2.7206 11.7783 2.76923 11.6609 2.76923 11.5385V9.69231C2.76923 9.5699 2.7206 9.45251 2.63405 9.36595C2.54749 9.2794 2.4301 9.23077 2.30769 9.23077ZM2.30769 0H0.461538C0.339131 0 0.221737 0.0486262 0.135181 0.135181C0.0486262 0.221737 0 0.339131 0 0.461538L0 2.30769C0 2.4301 0.0486262 2.54749 0.135181 2.63405C0.221737 2.7206 0.339131 2.76923 0.461538 2.76923H2.30769C2.4301 2.76923 2.54749 2.7206 2.63405 2.63405C2.7206 2.54749 2.76923 2.4301 2.76923 2.30769V0.461538C2.76923 0.339131 2.7206 0.221737 2.63405 0.135181C2.54749 0.0486262 2.4301 0 2.30769 0ZM2.30769 4.61538H0.461538C0.339131 4.61538 0.221737 4.66401 0.135181 4.75057C0.0486262 4.83712 0 4.95452 0 5.07692L0 6.92308C0 7.04548 0.0486262 7.16288 0.135181 7.24943C0.221737 7.33599 0.339131 7.38462 0.461538 7.38462H2.30769C2.4301 7.38462 2.54749 7.33599 2.63405 7.24943C2.7206 7.16288 2.76923 7.04548 2.76923 6.92308V5.07692C2.76923 4.95452 2.7206 4.83712 2.63405 4.75057C2.54749 4.66401 2.4301 4.61538 2.30769 4.61538ZM14.3077 9.69231H5.07692C4.95452 9.69231 4.83712 9.74093 4.75057 9.82749C4.66401 9.91404 4.61538 10.0314 4.61538 10.1538V11.0769C4.61538 11.1993 4.66401 11.3167 4.75057 11.4033C4.83712 11.4898 4.95452 11.5385 5.07692 11.5385H14.3077C14.4301 11.5385 14.5475 11.4898 14.634 11.4033C14.7206 11.3167 14.7692 11.1993 14.7692 11.0769V10.1538C14.7692 10.0314 14.7206 9.91404 14.634 9.82749C14.5475 9.74093 14.4301 9.69231 14.3077 9.69231ZM14.3077 0.461538H5.07692C4.95452 0.461538 4.83712 0.510165 4.75057 0.59672C4.66401 0.683275 4.61538 0.800669 4.61538 0.923077V1.84615C4.61538 1.96856 4.66401 2.08596 4.75057 2.17251C4.83712 2.25907 4.95452 2.30769 5.07692 2.30769H14.3077C14.4301 2.30769 14.5475 2.25907 14.634 2.17251C14.7206 2.08596 14.7692 1.96856 14.7692 1.84615V0.923077C14.7692 0.800669 14.7206 0.683275 14.634 0.59672C14.5475 0.510165 14.4301 0.461538 14.3077 0.461538ZM14.3077 5.07692H5.07692C4.95452 5.07692 4.83712 5.12555 4.75057 5.2121C4.66401 5.29866 4.61538 5.41605 4.61538 5.53846V6.46154C4.61538 6.58395 4.66401 6.70134 4.75057 6.7879C4.83712 6.87445 4.95452 6.92308 5.07692 6.92308H14.3077C14.4301 6.92308 14.5475 6.87445 14.634 6.7879C14.7206 6.70134 14.7692 6.58395 14.7692 6.46154V5.53846C14.7692 5.41605 14.7206 5.29866 14.634 5.2121C14.5475 5.12555 14.4301 5.07692 14.3077 5.07692Z" fill="#A8A8A8"/>
</svg>
