<svg width="13" height="15" viewBox="0 0 13 15" fill="none" xmlns="http://www.w3.org/2000/svg">
<path d="M3.20642 14.25H9.3916C10.1981 14.25 10.6859 13.8012 10.7184 12.9948L11.1347 3.49258H12.1102C12.3769 3.49258 12.5915 3.26495 12.5915 2.99829C12.5915 2.73163 12.3769 2.51049 12.1102 2.51049H9.14445V1.53491C9.14445 0.598359 8.51358 0 7.51198 0H5.07954C4.07793 0 3.45356 0.598359 3.45356 1.53491V2.51049H0.48129C0.221132 2.51049 0 2.73813 0 2.99829C0 3.26495 0.221132 3.49258 0.48129 3.49258H1.46988L1.88613 12.9948C1.91865 13.8012 2.39994 14.25 3.20642 14.25ZM4.49418 2.51049V1.59995C4.49418 1.22923 4.76084 0.969079 5.15758 0.969079H7.44044C7.83718 0.969079 8.11034 1.22923 8.11034 1.59995V2.51049H4.49418ZM3.58364 11.9801L3.29096 4.89091C3.27796 4.61776 3.47307 4.41614 3.72022 4.41614C3.94786 4.41614 4.14297 4.63076 4.15598 4.89091L4.42264 11.9801C4.42915 12.2468 4.24704 12.4614 3.99339 12.4614C3.75925 12.4614 3.59014 12.2663 3.58364 11.9801ZM5.85999 11.9801L5.85349 4.89091C5.85349 4.63076 6.06162 4.41614 6.29575 4.41614C6.53641 4.41614 6.74453 4.63076 6.74453 4.89091V11.9801C6.74453 12.2468 6.52989 12.4614 6.29575 12.4614C6.06162 12.4614 5.85999 12.2468 5.85999 11.9801ZM8.18188 11.9801L8.44854 4.89091C8.45505 4.63076 8.65016 4.41614 8.8843 4.41614C9.12495 4.41614 9.32006 4.61776 9.31356 4.89091L9.02088 11.9801C9.01438 12.2663 8.83877 12.4614 8.59813 12.4614C8.35098 12.4614 8.17538 12.2468 8.18188 11.9801Z" fill="#636363"/>
</svg>
